# xmcd CD database file
#
# Track frame offsets:
#	150
#	15765
#	33537
#	53852
#	68177
#	79550
#	90030
#	106117
#	123110
#	134742
#	150390
#	163287
#	182042
#	195942
#	216425
#	230217
#
# Disc length: 3265 seconds
#
# Revision: 3
# Processed by: cddbd v1.5.2PL0 Copyright (c) Steve Scherf et al.
# Submitted via: ACXtractor (MTCDDB.DLL V2003.12.21)
#
DISCID=c80cbf10
DTITLE=Lee Kernaghan - Rules of the Road
DYEAR=2000
DGENRE=Country
TTITLE0=Losin' My Blues Tonight
TTITLE1=Darwin Jailhouse Window
TTITLE2=Rules of the Road
TTITLE3=Cunnamulla Feller
TTITLE4=That's The Kind of Life I Live
TTITLE5=Where the White Faced Cattle Roam
TTITLE6=The Glass On The Bar
TTITLE7=Winter Winds
TTITLE8=Aussie Dog House Blues
TTITLE9=By A Fire of Gidgee Coal
TTITLE10=Overlander Trail
TTITLE11=Canmooweal
TTITLE12=Following The Light
TTITLE13=A Bushman Can't Survive
TTITLE14=Days of Old Khancoban
TTITLE15=Leave Him in the Longyard
EXTD=\nYEAR: 2000  ID3G:   2
EXTT0=
EXTT1=
EXTT2=
EXTT3=
EXTT4=
EXTT5=
EXTT6=
EXTT7=
EXTT8=
EXTT9=
EXTT10=
EXTT11=
EXTT12=
EXTT13=
EXTT14=
EXTT15=
PLAYORDER=
